<svg xmlns="http://www.w3.org/2000/svg" xmlns:xlink="http://www.w3.org/1999/xlink" width="500" zoomAndPan="magnify" viewBox="0 0 375 374.999991" height="500" preserveAspectRatio="xMidYMid meet" version="1.0"><defs><g/><radialGradient gradientTransform="matrix(1, 0, 0, 1, 0.0000045, 0)" gradientUnits="userSpaceOnUse" r="265.165051" cx="187.499996" id="7d1e9bc7fe" cy="187.499996" fx="187.499996" fy="187.499996"><stop stop-opacity="1" stop-color="rgb(90.237427%, 39.302063%, 53.781128%)" offset="0"/><stop stop-opacity="1" stop-color="rgb(90.313721%, 39.506531%, 53.947449%)" offset="0.00390625"/><stop stop-opacity="1" stop-color="rgb(90.390015%, 39.712524%, 54.112244%)" offset="0.0078125"/><stop stop-opacity="1" stop-color="rgb(90.467834%, 39.918518%, 54.278564%)" offset="0.0117188"/><stop stop-opacity="1" stop-color="rgb(90.544128%, 40.122986%, 54.444885%)" offset="0.015625"/><stop stop-opacity="1" stop-color="rgb(90.620422%, 40.328979%, 54.60968%)" offset="0.0195312"/><stop stop-opacity="1" stop-color="rgb(90.696716%, 40.534973%, 54.776001%)" offset="0.0234375"/><stop stop-opacity="1" stop-color="rgb(90.77301%, 40.739441%, 54.940796%)" offset="0.0273438"/><stop stop-opacity="1" stop-color="rgb(90.849304%, 40.945435%, 55.107117%)" offset="0.03125"/><stop stop-opacity="1" stop-color="rgb(90.927124%, 41.151428%, 55.271912%)" offset="0.0351562"/><stop stop-opacity="1" stop-color="rgb(91.003418%, 41.355896%, 55.438232%)" offset="0.0390625"/><stop stop-opacity="1" stop-color="rgb(91.079712%, 41.56189%, 55.603027%)" offset="0.0429688"/><stop stop-opacity="1" stop-color="rgb(91.156006%, 41.766357%, 55.769348%)" offset="0.046875"/><stop stop-opacity="1" stop-color="rgb(91.2323%, 41.972351%, 55.934143%)" offset="0.0507812"/><stop stop-opacity="1" stop-color="rgb(91.308594%, 42.178345%, 56.100464%)" offset="0.0546875"/><stop stop-opacity="1" stop-color="rgb(91.386414%, 42.382812%, 56.265259%)" offset="0.0585938"/><stop stop-opacity="1" stop-color="rgb(91.462708%, 42.588806%, 56.43158%)" offset="0.0625"/><stop stop-opacity="1" stop-color="rgb(91.539001%, 42.7948%, 56.5979%)" offset="0.0664062"/><stop stop-opacity="1" stop-color="rgb(91.615295%, 42.999268%, 56.762695%)" offset="0.0703125"/><stop stop-opacity="1" stop-color="rgb(91.691589%, 43.205261%, 56.929016%)" offset="0.0742188"/><stop stop-opacity="1" stop-color="rgb(91.767883%, 43.411255%, 57.093811%)" offset="0.078125"/><stop stop-opacity="1" stop-color="rgb(91.845703%, 43.615723%, 57.260132%)" offset="0.0820312"/><stop stop-opacity="1" stop-color="rgb(91.921997%, 43.821716%, 57.424927%)" offset="0.0859375"/><stop stop-opacity="1" stop-color="rgb(91.998291%, 44.02771%, 57.591248%)" offset="0.0898438"/><stop stop-opacity="1" stop-color="rgb(92.074585%, 44.232178%, 57.756042%)" offset="0.09375"/><stop stop-opacity="1" stop-color="rgb(92.150879%, 44.438171%, 57.922363%)" offset="0.0976562"/><stop stop-opacity="1" stop-color="rgb(92.228699%, 44.644165%, 58.087158%)" offset="0.101562"/><stop stop-opacity="1" stop-color="rgb(92.304993%, 44.848633%, 58.253479%)" offset="0.105469"/><stop stop-opacity="1" stop-color="rgb(92.381287%, 45.054626%, 58.4198%)" offset="0.109375"/><stop stop-opacity="1" stop-color="rgb(92.457581%, 45.26062%, 58.584595%)" offset="0.113281"/><stop stop-opacity="1" stop-color="rgb(92.533875%, 45.465088%, 58.750916%)" offset="0.117188"/><stop stop-opacity="1" stop-color="rgb(92.610168%, 45.671082%, 58.91571%)" offset="0.121094"/><stop stop-opacity="1" stop-color="rgb(92.687988%, 45.877075%, 59.082031%)" offset="0.125"/><stop stop-opacity="1" stop-color="rgb(92.764282%, 46.081543%, 59.246826%)" offset="0.128906"/><stop stop-opacity="1" stop-color="rgb(92.840576%, 46.287537%, 59.413147%)" offset="0.132812"/><stop stop-opacity="1" stop-color="rgb(92.91687%, 46.49353%, 59.577942%)" offset="0.136719"/><stop stop-opacity="1" stop-color="rgb(92.993164%, 46.697998%, 59.744263%)" offset="0.140625"/><stop stop-opacity="1" stop-color="rgb(93.069458%, 46.903992%, 59.909058%)" offset="0.144531"/><stop stop-opacity="1" stop-color="rgb(93.147278%, 47.109985%, 60.075378%)" offset="0.148438"/><stop stop-opacity="1" stop-color="rgb(93.223572%, 47.314453%, 60.241699%)" offset="0.152344"/><stop stop-opacity="1" stop-color="rgb(93.299866%, 47.520447%, 60.406494%)" offset="0.15625"/><stop stop-opacity="1" stop-color="rgb(93.37616%, 47.72644%, 60.572815%)" offset="0.160156"/><stop stop-opacity="1" stop-color="rgb(93.452454%, 47.930908%, 60.73761%)" offset="0.164062"/><stop stop-opacity="1" stop-color="rgb(93.530273%, 48.136902%, 60.903931%)" offset="0.167969"/><stop stop-opacity="1" stop-color="rgb(93.606567%, 48.34137%, 61.068726%)" offset="0.171875"/><stop stop-opacity="1" stop-color="rgb(93.682861%, 48.547363%, 61.235046%)" offset="0.175781"/><stop stop-opacity="1" stop-color="rgb(93.759155%, 48.753357%, 61.399841%)" offset="0.179688"/><stop stop-opacity="1" stop-color="rgb(93.835449%, 48.957825%, 61.566162%)" offset="0.183594"/><stop stop-opacity="1" stop-color="rgb(93.911743%, 49.163818%, 61.730957%)" offset="0.1875"/><stop stop-opacity="1" stop-color="rgb(93.989563%, 49.369812%, 61.897278%)" offset="0.191406"/><stop stop-opacity="1" stop-color="rgb(94.065857%, 49.57428%, 62.063599%)" offset="0.195312"/><stop stop-opacity="1" stop-color="rgb(94.142151%, 49.780273%, 62.228394%)" offset="0.199219"/><stop stop-opacity="1" stop-color="rgb(94.218445%, 49.986267%, 62.394714%)" offset="0.203125"/><stop stop-opacity="1" stop-color="rgb(94.294739%, 50.190735%, 62.559509%)" offset="0.207031"/><stop stop-opacity="1" stop-color="rgb(94.371033%, 50.396729%, 62.72583%)" offset="0.210938"/><stop stop-opacity="1" stop-color="rgb(94.448853%, 50.602722%, 62.890625%)" offset="0.214844"/><stop stop-opacity="1" stop-color="rgb(94.525146%, 50.80719%, 63.056946%)" offset="0.21875"/><stop stop-opacity="1" stop-color="rgb(94.60144%, 51.013184%, 63.221741%)" offset="0.222656"/><stop stop-opacity="1" stop-color="rgb(94.677734%, 51.219177%, 63.388062%)" offset="0.226562"/><stop stop-opacity="1" stop-color="rgb(94.754028%, 51.423645%, 63.552856%)" offset="0.230469"/><stop stop-opacity="1" stop-color="rgb(94.831848%, 51.629639%, 63.719177%)" offset="0.234375"/><stop stop-opacity="1" stop-color="rgb(94.908142%, 51.835632%, 63.885498%)" offset="0.238281"/><stop stop-opacity="1" stop-color="rgb(94.984436%, 52.0401%, 64.050293%)" offset="0.242188"/><stop stop-opacity="1" stop-color="rgb(95.06073%, 52.246094%, 64.216614%)" offset="0.246094"/><stop stop-opacity="1" stop-color="rgb(95.137024%, 52.452087%, 64.381409%)" offset="0.25"/><stop stop-opacity="1" stop-color="rgb(95.213318%, 52.656555%, 64.547729%)" offset="0.253906"/><stop stop-opacity="1" stop-color="rgb(95.291138%, 52.862549%, 64.712524%)" offset="0.257812"/><stop stop-opacity="1" stop-color="rgb(95.367432%, 53.068542%, 64.878845%)" offset="0.261719"/><stop stop-opacity="1" stop-color="rgb(95.443726%, 53.27301%, 65.04364%)" offset="0.265625"/><stop stop-opacity="1" stop-color="rgb(95.52002%, 53.479004%, 65.209961%)" offset="0.269531"/><stop stop-opacity="1" stop-color="rgb(95.596313%, 53.684998%, 65.374756%)" offset="0.273438"/><stop stop-opacity="1" stop-color="rgb(95.672607%, 53.889465%, 65.541077%)" offset="0.277344"/><stop stop-opacity="1" stop-color="rgb(95.750427%, 54.095459%, 65.707397%)" offset="0.28125"/><stop stop-opacity="1" stop-color="rgb(95.826721%, 54.301453%, 65.872192%)" offset="0.285156"/><stop stop-opacity="1" stop-color="rgb(95.903015%, 54.50592%, 66.038513%)" offset="0.289062"/><stop stop-opacity="1" stop-color="rgb(95.979309%, 54.711914%, 66.203308%)" offset="0.292969"/><stop stop-opacity="1" stop-color="rgb(96.055603%, 54.916382%, 66.369629%)" offset="0.296875"/><stop stop-opacity="1" stop-color="rgb(96.133423%, 55.122375%, 66.534424%)" offset="0.300781"/><stop stop-opacity="1" stop-color="rgb(96.209717%, 55.328369%, 66.700745%)" offset="0.304688"/><stop stop-opacity="1" stop-color="rgb(96.286011%, 55.532837%, 66.86554%)" offset="0.308594"/><stop stop-opacity="1" stop-color="rgb(96.362305%, 55.738831%, 67.03186%)" offset="0.3125"/><stop stop-opacity="1" stop-color="rgb(96.438599%, 55.944824%, 67.196655%)" offset="0.316406"/><stop stop-opacity="1" stop-color="rgb(96.514893%, 56.149292%, 67.362976%)" offset="0.320312"/><stop stop-opacity="1" stop-color="rgb(96.592712%, 56.355286%, 67.527771%)" offset="0.324219"/><stop stop-opacity="1" stop-color="rgb(96.669006%, 56.561279%, 67.694092%)" offset="0.328125"/><stop stop-opacity="1" stop-color="rgb(96.7453%, 56.765747%, 67.860413%)" offset="0.332031"/><stop stop-opacity="1" stop-color="rgb(96.821594%, 56.971741%, 68.025208%)" offset="0.335938"/><stop stop-opacity="1" stop-color="rgb(96.897888%, 57.177734%, 68.191528%)" offset="0.339844"/><stop stop-opacity="1" stop-color="rgb(96.974182%, 57.382202%, 68.356323%)" offset="0.34375"/><stop stop-opacity="1" stop-color="rgb(97.052002%, 57.588196%, 68.522644%)" offset="0.347656"/><stop stop-opacity="1" stop-color="rgb(97.128296%, 57.794189%, 68.687439%)" offset="0.351562"/><stop stop-opacity="1" stop-color="rgb(97.20459%, 57.998657%, 68.85376%)" offset="0.355469"/><stop stop-opacity="1" stop-color="rgb(97.280884%, 58.204651%, 69.018555%)" offset="0.359375"/><stop stop-opacity="1" stop-color="rgb(97.357178%, 58.410645%, 69.184875%)" offset="0.363281"/><stop stop-opacity="1" stop-color="rgb(97.434998%, 58.615112%, 69.34967%)" offset="0.367188"/><stop stop-opacity="1" stop-color="rgb(97.511292%, 58.821106%, 69.515991%)" offset="0.371094"/><stop stop-opacity="1" stop-color="rgb(97.587585%, 59.0271%, 69.682312%)" offset="0.375"/><stop stop-opacity="1" stop-color="rgb(97.663879%, 59.231567%, 69.847107%)" offset="0.378906"/><stop stop-opacity="1" stop-color="rgb(97.740173%, 59.437561%, 70.013428%)" offset="0.382812"/><stop stop-opacity="1" stop-color="rgb(97.816467%, 59.643555%, 70.178223%)" offset="0.386719"/><stop stop-opacity="1" stop-color="rgb(97.894287%, 59.848022%, 70.344543%)" offset="0.390625"/><stop stop-opacity="1" stop-color="rgb(97.970581%, 60.054016%, 70.509338%)" offset="0.394531"/><stop stop-opacity="1" stop-color="rgb(98.046875%, 60.26001%, 70.675659%)" offset="0.398438"/><stop stop-opacity="1" stop-color="rgb(98.123169%, 60.464478%, 70.840454%)" offset="0.402344"/><stop stop-opacity="1" stop-color="rgb(98.199463%, 60.670471%, 71.006775%)" offset="0.40625"/><stop stop-opacity="1" stop-color="rgb(98.275757%, 60.874939%, 71.17157%)" offset="0.410156"/><stop stop-opacity="1" stop-color="rgb(98.353577%, 61.080933%, 71.337891%)" offset="0.414062"/><stop stop-opacity="1" stop-color="rgb(98.429871%, 61.286926%, 71.504211%)" offset="0.417969"/><stop stop-opacity="1" stop-color="rgb(98.506165%, 61.491394%, 71.669006%)" offset="0.421875"/><stop stop-opacity="1" stop-color="rgb(98.582458%, 61.697388%, 71.835327%)" offset="0.425781"/><stop stop-opacity="1" stop-color="rgb(98.658752%, 61.903381%, 72.000122%)" offset="0.429688"/><stop stop-opacity="1" stop-color="rgb(98.736572%, 62.107849%, 72.166443%)" offset="0.433594"/><stop stop-opacity="1" stop-color="rgb(98.812866%, 62.313843%, 72.331238%)" offset="0.4375"/><stop stop-opacity="1" stop-color="rgb(98.88916%, 62.519836%, 72.497559%)" offset="0.441406"/><stop stop-opacity="1" stop-color="rgb(98.965454%, 62.724304%, 72.662354%)" offset="0.445312"/><stop stop-opacity="1" stop-color="rgb(99.041748%, 62.930298%, 72.828674%)" offset="0.449219"/><stop stop-opacity="1" stop-color="rgb(99.118042%, 63.136292%, 72.993469%)" offset="0.453125"/><stop stop-opacity="1" stop-color="rgb(99.195862%, 63.340759%, 73.15979%)" offset="0.457031"/><stop stop-opacity="1" stop-color="rgb(99.272156%, 63.546753%, 73.326111%)" offset="0.460938"/><stop stop-opacity="1" stop-color="rgb(99.34845%, 63.752747%, 73.490906%)" offset="0.464844"/><stop stop-opacity="1" stop-color="rgb(99.424744%, 63.957214%, 73.657227%)" offset="0.46875"/><stop stop-opacity="1" stop-color="rgb(99.501038%, 64.163208%, 73.822021%)" offset="0.472656"/><stop stop-opacity="1" stop-color="rgb(99.577332%, 64.369202%, 73.988342%)" offset="0.476562"/><stop stop-opacity="1" stop-color="rgb(99.655151%, 64.573669%, 74.153137%)" offset="0.480469"/><stop stop-opacity="1" stop-color="rgb(99.731445%, 64.779663%, 74.319458%)" offset="0.484375"/><stop stop-opacity="1" stop-color="rgb(99.807739%, 64.985657%, 74.484253%)" offset="0.488281"/><stop stop-opacity="1" stop-color="rgb(99.884033%, 65.190125%, 74.650574%)" offset="0.492188"/><stop stop-opacity="1" stop-color="rgb(99.935913%, 65.483093%, 74.871826%)" offset="0.496094"/><stop stop-opacity="1" stop-color="rgb(99.925232%, 65.760803%, 75.068665%)" offset="0.503906"/><stop stop-opacity="1" stop-color="rgb(99.876404%, 65.934753%, 75.18158%)" offset="0.507812"/><stop stop-opacity="1" stop-color="rgb(99.82605%, 66.108704%, 75.296021%)" offset="0.511719"/><stop stop-opacity="1" stop-color="rgb(99.777222%, 66.282654%, 75.408936%)" offset="0.515625"/><stop stop-opacity="1" stop-color="rgb(99.728394%, 66.456604%, 75.521851%)" offset="0.519531"/><stop stop-opacity="1" stop-color="rgb(99.679565%, 66.63208%, 75.634766%)" offset="0.523438"/><stop stop-opacity="1" stop-color="rgb(99.629211%, 66.80603%, 75.749207%)" offset="0.527344"/><stop stop-opacity="1" stop-color="rgb(99.580383%, 66.97998%, 75.862122%)" offset="0.53125"/><stop stop-opacity="1" stop-color="rgb(99.531555%, 67.153931%, 75.975037%)" offset="0.535156"/><stop stop-opacity="1" stop-color="rgb(99.482727%, 67.327881%, 76.087952%)" offset="0.539062"/><stop stop-opacity="1" stop-color="rgb(99.432373%, 67.503357%, 76.202393%)" offset="0.542969"/><stop stop-opacity="1" stop-color="rgb(99.383545%, 67.677307%, 76.315308%)" offset="0.546875"/><stop stop-opacity="1" stop-color="rgb(99.334717%, 67.851257%, 76.428223%)" offset="0.550781"/><stop stop-opacity="1" stop-color="rgb(99.285889%, 68.025208%, 76.541138%)" offset="0.554688"/><stop stop-opacity="1" stop-color="rgb(99.235535%, 68.199158%, 76.655579%)" offset="0.558594"/><stop stop-opacity="1" stop-color="rgb(99.186707%, 68.373108%, 76.768494%)" offset="0.5625"/><stop stop-opacity="1" stop-color="rgb(99.137878%, 68.548584%, 76.881409%)" offset="0.566406"/><stop stop-opacity="1" stop-color="rgb(99.08905%, 68.722534%, 76.994324%)" offset="0.570312"/><stop stop-opacity="1" stop-color="rgb(99.038696%, 68.896484%, 77.108765%)" offset="0.574219"/><stop stop-opacity="1" stop-color="rgb(98.989868%, 69.070435%, 77.22168%)" offset="0.578125"/><stop stop-opacity="1" stop-color="rgb(98.94104%, 69.244385%, 77.334595%)" offset="0.582031"/><stop stop-opacity="1" stop-color="rgb(98.892212%, 69.418335%, 77.44751%)" offset="0.585938"/><stop stop-opacity="1" stop-color="rgb(98.841858%, 69.593811%, 77.560425%)" offset="0.589844"/><stop stop-opacity="1" stop-color="rgb(98.79303%, 69.767761%, 77.674866%)" offset="0.59375"/><stop stop-opacity="1" stop-color="rgb(98.744202%, 69.941711%, 77.787781%)" offset="0.597656"/><stop stop-opacity="1" stop-color="rgb(98.695374%, 70.115662%, 77.900696%)" offset="0.601562"/><stop stop-opacity="1" stop-color="rgb(98.64502%, 70.289612%, 78.013611%)" offset="0.605469"/><stop stop-opacity="1" stop-color="rgb(98.596191%, 70.465088%, 78.128052%)" offset="0.609375"/><stop stop-opacity="1" stop-color="rgb(98.547363%, 70.639038%, 78.240967%)" offset="0.613281"/><stop stop-opacity="1" stop-color="rgb(98.498535%, 70.812988%, 78.353882%)" offset="0.617188"/><stop stop-opacity="1" stop-color="rgb(98.448181%, 70.986938%, 78.466797%)" offset="0.621094"/><stop stop-opacity="1" stop-color="rgb(98.399353%, 71.160889%, 78.581238%)" offset="0.625"/><stop stop-opacity="1" stop-color="rgb(98.326111%, 71.421814%, 78.75061%)" offset="0.628906"/><stop stop-opacity="1" stop-color="rgb(98.226929%, 71.77124%, 78.97644%)" offset="0.636719"/><stop stop-opacity="1" stop-color="rgb(98.129272%, 72.119141%, 79.203796%)" offset="0.644531"/><stop stop-opacity="1" stop-color="rgb(98.03009%, 72.467041%, 79.429626%)" offset="0.652344"/><stop stop-opacity="1" stop-color="rgb(97.930908%, 72.816467%, 79.656982%)" offset="0.660156"/><stop stop-opacity="1" stop-color="rgb(97.833252%, 73.164368%, 79.882812%)" offset="0.667969"/><stop stop-opacity="1" stop-color="rgb(97.73407%, 73.513794%, 80.110168%)" offset="0.675781"/><stop stop-opacity="1" stop-color="rgb(97.636414%, 73.861694%, 80.335999%)" offset="0.683594"/><stop stop-opacity="1" stop-color="rgb(97.537231%, 74.209595%, 80.563354%)" offset="0.691406"/><stop stop-opacity="1" stop-color="rgb(97.439575%, 74.559021%, 80.789185%)" offset="0.699219"/><stop stop-opacity="1" stop-color="rgb(97.340393%, 74.906921%, 81.016541%)" offset="0.707031"/><stop stop-opacity="1" stop-color="rgb(97.242737%, 75.254822%, 81.242371%)" offset="0.714844"/><stop stop-opacity="1" stop-color="rgb(97.143555%, 75.604248%, 81.469727%)" offset="0.722656"/><stop stop-opacity="1" stop-color="rgb(97.045898%, 75.952148%, 81.695557%)" offset="0.730469"/><stop stop-opacity="1" stop-color="rgb(96.946716%, 76.300049%, 81.922913%)" offset="0.738281"/><stop stop-opacity="1" stop-color="rgb(96.84906%, 76.649475%, 82.148743%)" offset="0.746094"/><stop stop-opacity="1" stop-color="rgb(96.775818%, 76.9104%, 82.319641%)" offset="0.753906"/><stop stop-opacity="1" stop-color="rgb(96.725464%, 77.084351%, 82.432556%)" offset="0.757812"/><stop stop-opacity="1" stop-color="rgb(96.676636%, 77.258301%, 82.545471%)" offset="0.761719"/><stop stop-opacity="1" stop-color="rgb(96.627808%, 77.433777%, 82.658386%)" offset="0.765625"/><stop stop-opacity="1" stop-color="rgb(96.578979%, 77.607727%, 82.772827%)" offset="0.769531"/><stop stop-opacity="1" stop-color="rgb(96.528625%, 77.781677%, 82.885742%)" offset="0.773438"/><stop stop-opacity="1" stop-color="rgb(96.479797%, 77.955627%, 82.998657%)" offset="0.777344"/><stop stop-opacity="1" stop-color="rgb(96.430969%, 78.129578%, 83.111572%)" offset="0.78125"/><stop stop-opacity="1" stop-color="rgb(96.382141%, 78.303528%, 83.224487%)" offset="0.785156"/><stop stop-opacity="1" stop-color="rgb(96.331787%, 78.479004%, 83.338928%)" offset="0.789062"/><stop stop-opacity="1" stop-color="rgb(96.282959%, 78.652954%, 83.451843%)" offset="0.792969"/><stop stop-opacity="1" stop-color="rgb(96.234131%, 78.826904%, 83.564758%)" offset="0.796875"/><stop stop-opacity="1" stop-color="rgb(96.185303%, 79.000854%, 83.677673%)" offset="0.800781"/><stop stop-opacity="1" stop-color="rgb(96.134949%, 79.174805%, 83.792114%)" offset="0.804688"/><stop stop-opacity="1" stop-color="rgb(96.086121%, 79.348755%, 83.905029%)" offset="0.808594"/><stop stop-opacity="1" stop-color="rgb(96.037292%, 79.524231%, 84.017944%)" offset="0.8125"/><stop stop-opacity="1" stop-color="rgb(95.962524%, 79.785156%, 84.187317%)" offset="0.816406"/><stop stop-opacity="1" stop-color="rgb(95.864868%, 80.133057%, 84.414673%)" offset="0.824219"/><stop stop-opacity="1" stop-color="rgb(95.765686%, 80.482483%, 84.640503%)" offset="0.832031"/><stop stop-opacity="1" stop-color="rgb(95.66803%, 80.830383%, 84.867859%)" offset="0.839844"/><stop stop-opacity="1" stop-color="rgb(95.568848%, 81.178284%, 85.093689%)" offset="0.847656"/><stop stop-opacity="1" stop-color="rgb(95.471191%, 81.52771%, 85.321045%)" offset="0.855469"/><stop stop-opacity="1" stop-color="rgb(95.372009%, 81.87561%, 85.546875%)" offset="0.863281"/><stop stop-opacity="1" stop-color="rgb(95.274353%, 82.223511%, 85.774231%)" offset="0.871094"/><stop stop-opacity="1" stop-color="rgb(95.199585%, 82.485962%, 85.943604%)" offset="0.878906"/><stop stop-opacity="1" stop-color="rgb(95.150757%, 82.659912%, 86.056519%)" offset="0.882812"/><stop stop-opacity="1" stop-color="rgb(95.101929%, 82.833862%, 86.170959%)" offset="0.886719"/><stop stop-opacity="1" stop-color="rgb(95.053101%, 83.007812%, 86.283875%)" offset="0.890625"/><stop stop-opacity="1" stop-color="rgb(95.002747%, 83.181763%, 86.39679%)" offset="0.894531"/><stop stop-opacity="1" stop-color="rgb(94.953918%, 83.357239%, 86.509705%)" offset="0.898438"/><stop stop-opacity="1" stop-color="rgb(94.90509%, 83.531189%, 86.624146%)" offset="0.902344"/><stop stop-opacity="1" stop-color="rgb(94.856262%, 83.705139%, 86.737061%)" offset="0.90625"/><stop stop-opacity="1" stop-color="rgb(94.781494%, 83.966064%, 86.906433%)" offset="0.910156"/><stop stop-opacity="1" stop-color="rgb(94.683838%, 84.313965%, 87.133789%)" offset="0.917969"/><stop stop-opacity="1" stop-color="rgb(94.584656%, 84.663391%, 87.359619%)" offset="0.925781"/><stop stop-opacity="1" stop-color="rgb(94.487%, 85.011292%, 87.586975%)" offset="0.933594"/><stop stop-opacity="1" stop-color="rgb(94.412231%, 85.272217%, 87.756348%)" offset="0.941406"/><stop stop-opacity="1" stop-color="rgb(94.363403%, 85.447693%, 87.869263%)" offset="0.945312"/><stop stop-opacity="1" stop-color="rgb(94.314575%, 85.621643%, 87.983704%)" offset="0.949219"/><stop stop-opacity="1" stop-color="rgb(94.265747%, 85.795593%, 88.096619%)" offset="0.953125"/><stop stop-opacity="1" stop-color="rgb(94.190979%, 86.056519%, 88.265991%)" offset="0.957031"/><stop stop-opacity="1" stop-color="rgb(94.093323%, 86.405945%, 88.493347%)" offset="0.964844"/><stop stop-opacity="1" stop-color="rgb(94.018555%, 86.66687%, 88.66272%)" offset="0.972656"/><stop stop-opacity="1" stop-color="rgb(93.969727%, 86.84082%, 88.775635%)" offset="0.976562"/><stop stop-opacity="1" stop-color="rgb(93.896484%, 87.101746%, 88.945007%)" offset="0.980469"/><stop stop-opacity="1" stop-color="rgb(93.821716%, 87.364197%, 89.115906%)" offset="0.988281"/><stop stop-opacity="1" stop-color="rgb(93.748474%, 87.625122%, 89.285278%)" offset="0.992188"/><stop stop-opacity="1" stop-color="rgb(93.699646%, 87.799072%, 89.399719%)" offset="1"/></radialGradient></defs><rect x="-37.5" width="450" fill="#ffffff" y="-37.499999" height="449.999989" fill-opacity="1"/><rect x="-37.5" fill="url(#7d1e9bc7fe)" width="450" y="-37.499999" height="449.999989"/><path stroke-linecap="butt" transform="matrix(0.75, 0, 0, 0.75, 91.443169, 205.065222)" fill="none" stroke-linejoin="miter" d="M -0.00235019 0.501579 L 256.153917 0.501579 " stroke="#fbfaf9" stroke-width="1" stroke-opacity="1" stroke-miterlimit="4"/><g fill="#fbfaf9" fill-opacity="1"><g transform="translate(104.456246, 187.294304)"><g><path d="M 21.4375 -0.578125 C 22.65625 -0.578125 23.515625 -0.671875 24.015625 -0.859375 C 24.515625 -1.054688 24.765625 -1.554688 24.765625 -2.359375 C 24.765625 -3.171875 23.910156 -5.914062 22.203125 -10.59375 L 7.453125 -10.59375 C 6.066406 -6.5 5.375 -3.925781 5.375 -2.875 C 5.375 -1.832031 5.640625 -1.1875 6.171875 -0.9375 C 6.703125 -0.695312 7.660156 -0.578125 9.046875 -0.578125 L 9.140625 0 L -1.734375 0 L -1.640625 -0.578125 C -0.703125 -0.578125 0.03125 -0.65625 0.5625 -0.8125 C 1.09375 -0.976562 1.671875 -1.40625 2.296875 -2.09375 C 2.921875 -2.789062 3.523438 -3.800781 4.109375 -5.125 C 4.691406 -6.445312 5.382812 -8.300781 6.1875 -10.6875 L 10.5 -23.125 C 12.007812 -27.507812 12.765625 -30.171875 12.765625 -31.109375 C 12.765625 -32.046875 12.539062 -32.648438 12.09375 -32.921875 C 11.644531 -33.191406 10.773438 -33.328125 9.484375 -33.328125 L 9.390625 -33.859375 L 17.359375 -33.859375 L 25.921875 -10.6875 C 27.378906 -6.851562 28.359375 -4.421875 28.859375 -3.390625 C 29.359375 -2.359375 29.832031 -1.695312 30.28125 -1.40625 C 31.082031 -0.851562 32.097656 -0.578125 33.328125 -0.578125 L 33.421875 0 L 21.328125 0 Z M 14.65625 -31.25 L 7.84375 -11.75 L 21.8125 -11.75 Z M 14.65625 -31.25 "/></g></g></g><g fill="#fbfaf9" fill-opacity="1"><g transform="translate(135.175172, 187.294304)"><g><path d="M 39.859375 -22.9375 L 39.859375 -10.9375 C 39.859375 -7.476562 39.960938 -5.117188 40.171875 -3.859375 C 40.378906 -2.609375 40.675781 -1.820312 41.0625 -1.5 C 41.8125 -0.882812 42.992188 -0.578125 44.609375 -0.578125 L 44.703125 0 L 31.734375 0 L 31.828125 -0.578125 C 33.410156 -0.578125 34.570312 -0.867188 35.3125 -1.453125 C 35.925781 -1.929688 36.28125 -3.507812 36.375 -6.1875 C 36.4375 -7.25 36.46875 -8.832031 36.46875 -10.9375 L 36.46875 -31.390625 L 22.9375 -0.484375 L 8.953125 -26.65625 L 8.953125 -11.03125 C 8.953125 -7.800781 9.101562 -5.46875 9.40625 -4.03125 C 9.71875 -2.601562 10.210938 -1.671875 10.890625 -1.234375 C 11.566406 -0.796875 12.691406 -0.578125 14.265625 -0.578125 L 14.375 0 L 2.46875 0 L 2.5625 -0.578125 C 3.757812 -0.578125 4.65625 -0.664062 5.25 -0.84375 C 5.84375 -1.019531 6.347656 -1.492188 6.765625 -2.265625 C 7.191406 -3.046875 7.457031 -4.078125 7.5625 -5.359375 C 7.675781 -6.648438 7.734375 -8.539062 7.734375 -11.03125 L 7.734375 -22.875 C 7.734375 -25.363281 7.675781 -27.25 7.5625 -28.53125 C 7.457031 -29.820312 7.191406 -30.851562 6.765625 -31.625 C 6.347656 -32.40625 5.84375 -32.882812 5.25 -33.0625 C 4.65625 -33.238281 3.757812 -33.328125 2.5625 -33.328125 L 2.46875 -33.859375 L 8.953125 -33.859375 L 23.890625 -5.65625 L 36.234375 -33.859375 L 44.703125 -33.859375 L 44.609375 -33.328125 C 42.992188 -33.328125 41.8125 -33.019531 41.0625 -32.40625 C 40.257812 -31.726562 39.859375 -28.570312 39.859375 -22.9375 Z M 39.859375 -22.9375 "/></g></g></g><g fill="#fbfaf9" fill-opacity="1"><g transform="translate(181.32625, 187.294304)"><g><path d="M 27.625 -9.484375 C 27.625 -6.253906 26.390625 -3.863281 23.921875 -2.3125 C 21.453125 -0.769531 18.070312 0 13.78125 0 L 2.421875 0 L 2.515625 -0.578125 C 3.316406 -0.578125 3.941406 -0.609375 4.390625 -0.671875 C 4.847656 -0.742188 5.273438 -0.921875 5.671875 -1.203125 C 6.078125 -1.492188 6.367188 -1.820312 6.546875 -2.1875 C 6.734375 -2.5625 6.890625 -3.1875 7.015625 -4.0625 C 7.171875 -5.1875 7.25 -7.476562 7.25 -10.9375 L 7.25 -22.9375 C 7.25 -27.769531 7.023438 -30.671875 6.578125 -31.640625 C 6.378906 -32.023438 6.078125 -32.363281 5.671875 -32.65625 C 5.273438 -32.945312 4.847656 -33.125 4.390625 -33.1875 C 3.941406 -33.25 3.316406 -33.28125 2.515625 -33.28125 L 2.421875 -33.859375 L 13.25 -33.859375 C 15.632812 -33.859375 18.054688 -33.441406 20.515625 -32.609375 C 21.898438 -32.148438 23.023438 -31.363281 23.890625 -30.25 C 24.765625 -29.144531 25.203125 -27.800781 25.203125 -26.21875 C 25.203125 -24.0625 24.425781 -22.367188 22.875 -21.140625 C 21.332031 -19.910156 19.476562 -19.054688 17.3125 -18.578125 C 19.832031 -18.316406 22.09375 -17.539062 24.09375 -16.25 C 25.15625 -15.539062 26.007812 -14.601562 26.65625 -13.4375 C 27.300781 -12.28125 27.625 -10.960938 27.625 -9.484375 Z M 21 -26.21875 C 21 -30.570312 17.546875 -32.75 10.640625 -32.75 L 10.640625 -18.921875 L 11.078125 -18.921875 C 17.691406 -18.921875 21 -21.351562 21 -26.21875 Z M 23.40625 -9.484375 C 23.40625 -15.128906 19.394531 -17.953125 11.375 -17.953125 L 10.640625 -17.953125 L 10.640625 -10.203125 C 10.640625 -6.691406 10.742188 -4.394531 10.953125 -3.3125 C 11.160156 -2.226562 11.6875 -1.492188 12.53125 -1.109375 C 14.144531 -1.109375 15.632812 -1.300781 17 -1.6875 C 18.375 -2.082031 19.472656 -2.550781 20.296875 -3.09375 C 21.117188 -3.644531 21.84375 -4.46875 22.46875 -5.5625 C 23.09375 -6.65625 23.40625 -7.960938 23.40625 -9.484375 Z M 23.40625 -9.484375 "/></g></g></g><g fill="#fbfaf9" fill-opacity="1"><g transform="translate(210.255245, 187.294304)"><g><path d="M 26.796875 0 L 2.421875 0 L 2.515625 -0.578125 C 4.128906 -0.578125 5.304688 -0.882812 6.046875 -1.5 C 6.847656 -2.175781 7.25 -5.320312 7.25 -10.9375 L 7.25 -22.9375 C 7.25 -26.382812 7.144531 -28.742188 6.9375 -30.015625 C 6.726562 -31.285156 6.429688 -32.082031 6.046875 -32.40625 C 5.304688 -33.019531 4.128906 -33.328125 2.515625 -33.328125 L 2.421875 -33.859375 L 25.015625 -33.859375 L 25.015625 -26.890625 L 24.421875 -27 C 24.421875 -29.15625 23.285156 -30.648438 21.015625 -31.484375 C 18.742188 -32.328125 15.269531 -32.75 10.59375 -32.75 L 10.59375 -17.515625 C 13.6875 -17.515625 15.910156 -17.675781 17.265625 -18 C 18.617188 -18.320312 19.488281 -18.8125 19.875 -19.46875 C 20.269531 -20.132812 20.46875 -21.238281 20.46875 -22.78125 L 21 -22.875 L 21 -11.125 L 20.46875 -11.21875 C 20.46875 -12.800781 20.269531 -13.914062 19.875 -14.5625 C 19.488281 -15.207031 18.617188 -15.679688 17.265625 -15.984375 C 15.910156 -16.296875 13.6875 -16.453125 10.59375 -16.453125 L 10.59375 -10.203125 C 10.59375 -6.785156 10.710938 -4.507812 10.953125 -3.375 C 11.191406 -2.25 11.734375 -1.492188 12.578125 -1.109375 C 21.671875 -1.109375 26.21875 -3.046875 26.21875 -6.921875 L 26.796875 -7.015625 Z M 26.796875 0 "/></g></g></g><g fill="#fbfaf9" fill-opacity="1"><g transform="translate(239.087484, 187.294304)"><g><path d="M 27.140625 0 C 26.328125 0 25.523438 -0.410156 24.734375 -1.234375 C 23.953125 -2.054688 23.242188 -3.078125 22.609375 -4.296875 C 21.984375 -5.523438 21.25 -6.859375 20.40625 -8.296875 C 19.570312 -9.734375 18.734375 -11.078125 17.890625 -12.328125 C 17.054688 -13.585938 15.992188 -14.648438 14.703125 -15.515625 C 13.410156 -16.390625 12.039062 -16.863281 10.59375 -16.9375 L 10.59375 -10.9375 C 10.59375 -7.445312 10.695312 -5.082031 10.90625 -3.84375 C 11.113281 -2.601562 11.410156 -1.820312 11.796875 -1.5 C 12.578125 -0.882812 13.773438 -0.578125 15.390625 -0.578125 L 15.484375 0 L 2.515625 0 L 2.609375 -0.578125 C 4.191406 -0.578125 5.351562 -0.867188 6.09375 -1.453125 C 6.707031 -1.929688 7.0625 -3.507812 7.15625 -6.1875 C 7.21875 -7.25 7.25 -8.832031 7.25 -10.9375 L 7.25 -23.171875 C 7.25 -26.753906 7.148438 -29.125 6.953125 -30.28125 C 6.765625 -31.445312 6.476562 -32.171875 6.09375 -32.453125 C 5.351562 -33.003906 4.191406 -33.28125 2.609375 -33.28125 L 2.515625 -33.859375 L 13.734375 -33.859375 C 21.859375 -33.859375 25.921875 -31.117188 25.921875 -25.640625 C 25.921875 -23.285156 25.09375 -21.304688 23.4375 -19.703125 C 21.78125 -18.109375 19.773438 -17.1875 17.421875 -16.9375 C 19.773438 -15.539062 21.953125 -12.988281 23.953125 -9.28125 C 24.722656 -7.832031 25.539062 -6.445312 26.40625 -5.125 C 28.3125 -2.09375 30.765625 -0.578125 33.765625 -0.578125 L 33.859375 0 Z M 10.59375 -32.75 L 10.59375 -17.90625 L 13.640625 -17.90625 C 16.085938 -17.90625 18.117188 -18.53125 19.734375 -19.78125 C 21.347656 -21.039062 22.15625 -22.910156 22.15625 -25.390625 C 22.15625 -30.296875 19.347656 -32.75 13.734375 -32.75 Z M 10.59375 -32.75 "/></g></g></g></svg>